<svg width="32" height="32" viewBox="0 0 32 32" fill="none" xmlns="http://www.w3.org/2000/svg">
<g clip-path="url(#clip0_40003974_25655)">
<path opacity="0.5" d="M32 16C32 24.8366 24.8366 32 16 32C7.16344 32 0 24.8366 0 16C0 7.16344 7.16344 0 16 0C24.8366 0 32 7.16344 32 16ZM2.56 16C2.56 23.4227 8.57729 29.44 16 29.44C23.4227 29.44 29.44 23.4227 29.44 16C29.44 8.57729 23.4227 2.56 16 2.56C8.57729 2.56 2.56 8.57729 2.56 16Z" fill="#BCC3D0" fill-opacity="0.5"/>
<path d="M16 1.28C16 0.573076 16.574 -0.0053257 17.2787 0.051159C20.4877 0.308386 23.5557 1.52921 26.0724 3.5683C28.9217 5.87687 30.8915 9.09417 31.6521 12.6816C32.4127 16.269 31.9178 20.0089 30.2504 23.275C28.583 26.5412 25.8442 29.1355 22.4925 30.6235C19.1408 32.1116 15.3796 32.4031 11.8387 31.4494C8.2977 30.4956 5.19182 28.3544 3.04097 25.3842C0.890125 22.414 -0.175146 18.7951 0.0234885 15.1334C0.198937 11.899 1.35104 8.80458 3.31246 6.25182C3.74318 5.69126 4.5572 5.65339 5.08156 6.12751V6.12751C5.60591 6.60164 5.64104 7.40782 5.21893 7.97488C3.64651 10.0872 2.72338 12.6238 2.57973 15.272C2.41288 18.3479 3.30771 21.3878 5.11442 23.8827C6.92113 26.3777 9.53007 28.1763 12.5045 28.9775C15.4789 29.7786 18.6383 29.5337 21.4537 28.2838C24.2691 27.0338 26.5697 24.8546 27.9703 22.111C29.371 19.3675 29.7866 16.226 29.1478 13.2125C28.5089 10.1991 26.8542 7.49657 24.4608 5.55737C22.4001 3.8878 19.8996 2.87129 17.2781 2.62089C16.5744 2.55368 16 1.98692 16 1.28V1.28Z" fill="#8F8FFF"/>
</g>
<defs>
<clipPath id="clip0_40003974_25655">
<rect width="32" height="32" fill="white"/>
</clipPath>
</defs>
</svg>
