<svg width="5074" height="5074" viewBox="0 0 5074 5074" fill="none" xmlns="http://www.w3.org/2000/svg">
<path d="M3691.7 4798.64L2536.58 2536.64L405.165 3918.01L274.504 3691.7L2536.58 2536.57L3918.01 4667.98L3691.7 4798.64ZM2536.58 2536.57L120.249 3319.29L52.6134 3066.87L2536.58 2536.57ZM2536.58 2536.57L0 2667.23L0.000148694 2405.91L2536.58 2536.57ZM2536.58 2536.57L52.6141 2006.27L120.249 1753.85L2536.58 2536.57ZM2536.58 2536.57L274.507 1381.44L405.169 1155.13L2536.58 2536.57ZM2536.58 2536.57L650.555 835.334L835.338 650.551L2536.58 2536.57ZM2536.57 2536.39L1381.44 274.504L1155.13 405.166L2536.58 2536.57L4237.8 4422.59L4422.58 4237.81L2536.58 2536.57L4667.97 3918.01L4798.63 3691.7L2536.58 2536.57L4952.89 3319.29L5020.52 3066.88L2536.58 2536.57L5073.14 2667.23V2405.91L2536.58 2536.57L5020.53 2006.27L4952.89 1753.85L2536.58 2536.57L4798.64 1381.44L4667.97 1155.13L2536.74 2536.43L4422.59 835.339L4237.81 650.555L2536.74 2536.43L3918.01 405.17L3691.7 274.509L2536.74 2536.43L2536.66 2536.48L2536.59 2536.52L3319.3 120.251L3066.88 52.6155L2536.57 2536.44L2536.57 2536.39ZM2536.57 2536.39L1753.85 120.249L2006.27 52.614L2536.57 2536.39ZM2536.57 2536.39L2405.91 0.000607449L2667.24 0L2536.57 2536.39ZM2536.58 2536.64L1753.85 4952.89L2006.27 5020.53L2536.58 2536.64ZM2536.58 2536.64L3319.29 4952.89L3066.87 5020.53L2536.58 2536.64ZM2536.58 2536.64L2405.91 5073.14H2667.23L2536.58 2536.64ZM2536.58 2536.64L1381.44 4798.64L1155.13 4667.98L2536.58 2536.64ZM2536.58 2536.64L835.334 4422.59L650.55 4237.81L2536.58 2536.64Z" fill="white"/>
</svg>
