<svg width="16" height="16" viewBox="0 0 16 16" fill="none" xmlns="http://www.w3.org/2000/svg">
<path d="M8 8.34023C7.58578 8.34023 7.25 8.00444 7.25 7.59022L7.25001 5.75C7.25001 5.33578 7.58579 5 8.00001 5C8.41422 5 8.75001 5.33579 8.75001 5.75L8.75 7.59023C8.75 8.00444 8.41421 8.34023 8 8.34023Z" fill="white"/>
<path d="M8.0001 9.2C8.49715 9.2 8.9001 9.60294 8.9001 10.1C8.9001 10.5971 8.49715 11 8.0001 11C7.50304 11 7.1001 10.5971 7.1001 10.1C7.1001 9.60294 7.50304 9.2 8.0001 9.2Z" fill="white"/>
<path fill-rule="evenodd" clip-rule="evenodd" d="M3.12398 12.876C2.24873 12.0008 2.18383 11.1288 2.05404 9.38478C2.02039 8.9327 2 8.46635 2 8C2 7.53365 2.02039 7.0673 2.05404 6.61522C2.18383 4.87122 2.24873 3.99923 3.12398 3.12398C3.99923 2.24873 4.87122 2.18383 6.61522 2.05404C7.0673 2.02039 7.53365 2 8 2C8.46635 2 8.9327 2.02039 9.38478 2.05404C11.1288 2.18383 12.0008 2.24873 12.876 3.12398C13.7513 3.99923 13.8162 4.87122 13.946 6.61521C13.9796 7.0673 14 7.53365 14 8C14 8.46635 13.9796 8.9327 13.946 9.38478C13.8162 11.1288 13.7513 12.0008 12.876 12.876C12.0008 13.7513 11.1288 13.8162 9.38479 13.946C8.9327 13.9796 8.46635 14 8 14C7.53365 14 7.0673 13.9796 6.61522 13.946C4.87122 13.8162 3.99923 13.7513 3.12398 12.876ZM8 12.5C7.57663 12.5 7.1479 12.4815 6.72655 12.4501C4.88177 12.3128 4.60488 12.2356 4.18464 11.8154C3.7644 11.3951 3.6872 11.1182 3.5499 9.27346C3.51854 8.8521 3.5 8.42337 3.5 8C3.5 7.57663 3.51854 7.1479 3.5499 6.72654C3.6872 4.88177 3.7644 4.60488 4.18464 4.18464C4.60488 3.7644 4.88177 3.68719 6.72654 3.5499C7.1479 3.51854 7.57663 3.5 8 3.5C8.42337 3.5 8.8521 3.51854 9.27346 3.5499C11.1182 3.68719 11.3951 3.7644 11.8154 4.18464C12.2356 4.60488 12.3128 4.88177 12.4501 6.72654C12.4815 7.1479 12.5 7.57663 12.5 8C12.5 8.42337 12.4815 8.8521 12.4501 9.27345C12.3128 11.1182 12.2356 11.3951 11.8154 11.8154C11.3951 12.2356 11.1182 12.3128 9.27346 12.4501C8.8521 12.4815 8.42337 12.5 8 12.5Z" fill="white"/>
</svg>
