<svg width="16" height="16" viewBox="0 0 16 16" fill="none" xmlns="http://www.w3.org/2000/svg">
<g clip-path="url(#clip0_40003865_1504)">
<path fill-rule="evenodd" clip-rule="evenodd" d="M3.61452 3.99658C3.53211 3.76263 3.48727 3.51094 3.48727 3.24878C3.48727 2.00681 4.49343 1 5.73459 1C6.81865 1 7.56107 1.74643 7.99995 2.44128C8.43882 1.74643 9.18124 1 10.2653 1C11.5065 1 12.5126 2.00681 12.5126 3.24878C12.5126 3.51094 12.4678 3.76263 12.3854 3.99658H13.082C13.6572 3.99658 13.8098 4.50325 13.8572 4.97819C13.9415 5.82323 14 6.8296 14 7.99543C14 9.1616 13.9415 10.1682 13.8571 11.0133C13.7234 12.352 13.6566 13.0213 12.813 13.8638C11.9693 14.7063 11.3012 14.7718 9.96497 14.9027C9.36396 14.9616 8.70254 15 8 15C7.29747 15 6.63608 14.9616 6.03507 14.9027C4.69881 14.7718 4.03067 14.7063 3.18701 13.8638C2.34335 13.0213 2.27653 12.3519 2.1429 11.0132C2.05853 10.1681 2 9.16155 2 7.99543C2 6.82967 2.0585 5.82335 2.14282 4.97834C2.19018 4.50376 2.35457 3.99658 2.92184 3.99658H3.61452ZM4.98727 3.24878C4.98727 2.83578 5.32186 2.50098 5.73459 2.50098C6.07506 2.50098 6.44461 2.75352 6.77889 3.32005C6.91139 3.5446 7.01398 3.78301 7.08916 4H5.73459C5.32186 4 4.98727 3.66178 4.98727 3.24878ZM10.2619 4H8.90731C8.9825 3.78301 9.0885 3.5446 9.221 3.32005C9.55528 2.75352 9.92484 2.50098 10.2653 2.50098C10.678 2.50098 11.0126 2.83578 11.0126 3.24878C11.0126 3.66178 10.6746 4 10.2619 4ZM3.51531 7C3.53238 6.45392 3.56271 5.95424 3.60126 5.5H7.25V7H3.51531ZM3.50387 8.5C3.51782 9.4023 3.56825 10.1906 3.63547 10.864C3.70713 11.5819 3.74679 11.9119 3.82906 12.1725C3.97312 12.629 4.41905 13.0747 4.87551 13.218C5.13555 13.2997 5.46457 13.3387 6.18121 13.4089C6.519 13.4419 6.87661 13.468 7.25 13.4834V8.5H3.50387ZM8.75 13.4834C9.1234 13.468 9.48102 13.4419 9.81882 13.4088C10.5354 13.3386 10.8644 13.2997 11.1245 13.218C11.5809 13.0747 12.0268 12.629 12.1709 12.1726C12.2532 11.9119 12.2928 11.5819 12.3645 10.8641C12.4317 10.1907 12.4822 9.40234 12.4961 8.5H8.75V13.4834ZM12.4847 7C12.4676 6.45392 12.4373 5.95424 12.3987 5.5H8.75V7H12.4847Z" fill="#FAFAFA"/>
</g>
<defs>
<clipPath id="clip0_40003865_1504">
<rect width="16" height="16" fill="white"/>
</clipPath>
</defs>
</svg>
